HIERARCHY
ROOT root
{
	OFFSET 0.000000 0.000000 0.000000
	CHANNELS 6 Xposition Yposition Zposition Zrotation Yrotation Xrotation
	JOINT lhip
	{
		OFFSET 0.058581 -0.082280 -0.017664
		CHANNELS 3 Zrotation Yrotation Xrotation
		JOINT lknee
		{
			OFFSET 0.043451 -0.386469 0.008037
			CHANNELS 3 Zrotation Yrotation Xrotation
			JOINT lankle
			{
				OFFSET -0.014790 -0.426874 -0.037428
				CHANNELS 3 Zrotation Yrotation Xrotation
				JOINT ltoe
				{
					OFFSET 0.041054 -0.060286 0.122042
					CHANNELS 3 Zrotation Yrotation Xrotation
					End Site
					{
						OFFSET 0.000000 0.000000 0.000000
					}
				}
			}
		}
	}
	JOINT rhip
	{
		OFFSET -0.060310 -0.090513 -0.013543
		CHANNELS 3 Zrotation Yrotation Xrotation
		JOINT rknee
		{
			OFFSET -0.043257 -0.383688 -0.004843
			CHANNELS 3 Zrotation Yrotation Xrotation
			JOINT rankle
			{
				OFFSET 0.019056 -0.420046 -0.034562
				CHANNELS 3 Zrotation Yrotation Xrotation
				JOINT rtoe
				{
					OFFSET -0.034840 -0.062106 0.130323
					CHANNELS 3 Zrotation Yrotation Xrotation
					End Site
					{
						OFFSET 0.000000 0.000000 0.000000
					}
				}
			}
		}
	}
	JOINT lowerback
	{
		OFFSET 0.004439 0.124404 -0.038385
		CHANNELS 3 Zrotation Yrotation Xrotation
		JOINT upperback
		{
			OFFSET 0.004488 0.137956 0.026820
			CHANNELS 3 Zrotation Yrotation Xrotation
			JOINT chest
			{
				OFFSET -0.002265 0.056032 0.002855
				CHANNELS 3 Zrotation Yrotation Xrotation
				JOINT lowerneck
				{
					OFFSET -0.013390 0.211636 -0.033468
					CHANNELS 3 Zrotation Yrotation Xrotation
					JOINT upperneck
					{
						OFFSET 0.010113 0.088937 0.050410
						CHANNELS 3 Zrotation Yrotation Xrotation
						End Site
						{
							OFFSET 0.000000 0.000000 0.000000
						}
					}
				}
				JOINT lclavicle
				{
					OFFSET 0.071702 0.114000 -0.018898
					CHANNELS 3 Zrotation Yrotation Xrotation
					JOINT lshoulder
					{
						OFFSET 0.122921 0.045205 -0.019046
						CHANNELS 3 Zrotation Yrotation Xrotation
						JOINT lelbow
						{
							OFFSET 0.255332 -0.015649 -0.022946
							CHANNELS 3 Zrotation Yrotation Xrotation
							JOINT lwrist
							{
								OFFSET 0.265709 0.012698 -0.007375
								CHANNELS 3 Zrotation Yrotation Xrotation
								End Site
								{
									OFFSET 0.000000 0.000000 0.000000
								}
							}
						}
					}
				}
				JOINT rclavicle
				{
					OFFSET -0.082954 0.112472 -0.023707
					CHANNELS 3 Zrotation Yrotation Xrotation
					JOINT rshoulder
					{
						OFFSET -0.113228 0.046853 -0.008472
						CHANNELS 3 Zrotation Yrotation Xrotation
						JOINT relbow
						{
							OFFSET -0.260127 -0.014369 -0.031269
							CHANNELS 3 Zrotation Yrotation Xrotation
							JOINT rwrist
							{
								OFFSET -0.269108 0.006794 -0.006027
								CHANNELS 3 Zrotation Yrotation Xrotation
								End Site
								{
									OFFSET 0.000000 0.000000 0.000000
								}
							}
						}
					}
				}
			}
		}
	}
}
MOTION
Frames: 11
Frame Time: 0.033333
0.071521 -0.457593 0.817995 -153.038380 -10.762681 104.296741 9.335991 -3.728268 -61.382947 -14.226263 9.826106 60.564205 4.266320 9.128516 -25.826158 0.000000 -0.000000 0.000000 -31.106583 -22.350590 -42.628496 -1.798840 -8.902642 79.951265 12.504636 -10.120621 -31.842297 0.000000 -0.000000 0.000000 3.377245 14.694356 42.887814 -10.917447 5.051216 -6.900869 -5.098026 4.007374 3.510811 -20.606408 28.155898 -12.963343 -8.759725 24.641064 1.647852 -23.447909 -2.751506 -6.421849 -15.960798 6.881532 -6.786563 17.468182 -23.035137 -19.474864 31.787655 -14.312121 11.729956 28.579364 6.296146 5.580850 37.183395 -9.713508 14.953441 -2.265629 61.528983 -7.269247 -6.626735 19.047667 -13.433383 
0.070465 -0.456484 0.818899 -153.190527 -10.727596 104.119765 9.143768 -3.785794 -60.995926 -14.090054 9.662662 60.602202 4.428529 9.347985 -25.974475 0.000000 -0.000000 0.000000 -31.114493 -22.083479 -42.296342 -1.925897 -8.825977 79.748052 12.575801 -10.115535 -31.825178 0.000000 -0.000000 0.000000 3.201501 14.776846 42.549458 -10.383211 5.046035 -6.323052 -5.184446 4.000752 3.608686 -19.256850 23.399473 -14.159086 -7.479195 17.936780 1.979357 -23.735396 -2.321746 -6.549766 -15.975372 5.895661 -6.480499 17.479019 -22.803626 -19.061237 31.334464 -14.142828 12.046623 29.171948 6.288385 4.745075 36.913847 -10.010942 14.828588 -4.279724 61.664052 -8.684207 -6.400451 19.406692 -14.538103 
0.069525 -0.456112 0.819864 -153.194082 -10.592136 103.844472 8.943580 -3.957316 -60.602910 -13.797947 9.323897 60.630139 4.272484 9.371156 -26.158836 0.000000 -0.000000 0.000000 -31.020079 -21.877237 -41.832332 -2.268964 -8.757934 79.529641 12.706062 -9.902647 -31.646075 0.000000 -0.000000 0.000000 3.076550 14.862498 42.332644 -9.664956 4.895069 -6.013510 -4.979460 4.014785 3.857466 -17.402326 17.079181 -14.964764 -5.841441 8.598656 1.367580 -24.159415 -1.953277 -6.419123 -16.336002 4.912810 -5.993202 17.797536 -22.655772 -18.850515 31.477958 -13.785746 12.113416 29.448565 6.334033 3.823055 36.062543 -10.322837 14.524079 -3.965626 62.083885 -7.493362 -8.505054 19.431663 -14.915107 
0.068766 -0.455921 0.821096 -153.345657 -10.318154 103.771874 8.931554 -3.934167 -60.327758 -13.615252 9.055692 60.584802 4.211293 9.288446 -26.259368 0.000000 -0.000000 0.000000 -30.687195 -21.562659 -41.577303 -2.360172 -8.678771 79.069633 12.552497 -10.047807 -31.481174 0.000000 -0.000000 0.000000 2.736951 14.726582 41.882810 -8.832466 4.572062 -5.753698 -4.756358 4.389133 4.004567 -15.192387 9.522083 -15.690420 -3.532786 -1.182846 0.022589 -24.819295 -1.832409 -5.954095 -16.467739 4.308525 -5.584211 18.086382 -22.122407 -19.091203 30.821298 -13.351340 12.241117 29.536517 6.733667 3.017559 36.033000 -10.708554 13.994601 -5.215641 62.034697 -7.559896 -8.002549 19.048386 -14.204733 
0.067557 -0.455069 0.822841 -153.789714 -10.179297 103.609360 8.607196 -3.660695 -59.823732 -13.453405 8.765509 60.593219 4.366757 9.332843 -26.312400 0.000000 -0.000000 0.000000 -30.427140 -21.471235 -41.318442 -2.568878 -8.437944 78.522110 12.514063 -9.995193 -31.422555 0.000000 -0.000000 0.000000 2.671005 14.547065 42.121257 -8.513950 4.317960 -5.955769 -4.758692 4.620055 3.716665 -12.970656 1.593179 -15.220215 -0.326621 -9.295489 -1.916473 -25.233581 -2.012256 -5.100462 -16.537773 4.210146 -5.369473 18.162446 -21.671306 -19.777916 30.888782 -12.639724 12.447940 29.206468 7.074784 2.052924 37.145739 -11.483745 13.223691 -5.559242 61.646369 -7.568790 -6.816843 18.677694 -12.008494 
0.066172 -0.455828 0.824038 -154.483285 -9.922520 103.555141 8.583603 -3.545155 -59.566022 -13.115204 8.696802 60.744639 4.265291 9.561988 -26.600253 0.000000 -0.000000 0.000000 -30.364995 -21.144165 -41.271136 -2.736665 -8.632397 78.020610 12.320132 -9.835148 -31.370023 0.000000 -0.000000 0.000000 2.437615 14.482368 41.824840 -7.938801 4.200736 -5.421438 -4.548121 4.434907 3.216167 -10.518463 -4.520813 -15.168598 1.916858 -16.279831 -3.685803 -25.732854 -1.721145 -4.107728 -17.302609 4.238815 -5.172325 18.704018 -21.270358 -19.213109 30.509087 -11.969122 12.050733 28.935712 7.357481 2.018408 37.144750 -11.455349 12.523214 -4.757733 61.630638 -6.071178 -7.063095 18.698894 -13.192324 
0.064504 -0.456923 0.825232 -155.294397 -9.573653 103.612052 8.685637 -3.311989 -59.429771 -12.615629 8.817440 60.970499 4.175855 9.490044 -26.879613 0.000000 -0.000000 0.000000 -30.129128 -21.031672 -41.434763 -2.816739 -8.663300 77.506468 12.144537 -9.384936 -31.118198 0.000000 -0.000000 0.000000 2.377817 14.420842 41.728337 -7.483143 4.051255 -5.210023 -4.383740 4.480397 2.698344 -8.499211 -9.224830 -15.052669 4.823715 -21.929905 -5.445676 -25.884903 -1.820364 -3.356582 -18.177992 4.404533 -5.373153 19.234825 -20.784587 -20.408510 29.574537 -11.766275 12.572543 28.878938 7.645514 2.169461 37.153178 -12.101937 11.541060 -4.783781 62.090769 -6.118461 -6.186692 18.836069 -14.134908 
0.062496 -0.457704 0.825699 -156.242115 -9.194535 103.678767 8.790673 -2.865251 -59.274977 -12.414702 8.890941 61.267958 4.160074 9.759592 -27.280037 0.000000 -0.000000 0.000000 -29.933421 -20.966461 -41.652312 -2.697657 -8.683928 77.015907 12.061467 -8.830030 -31.057797 0.000000 -0.000000 0.000000 2.270737 14.394056 41.534597 -7.053947 3.934772 -5.208213 -4.182917 4.263927 2.465174 -6.536360 -12.312495 -15.133530 7.197804 -25.410422 -7.105667 -26.188246 -1.344762 -2.925517 -18.775745 4.488850 -5.303145 19.458289 -20.663108 -20.683059 30.130353 -10.536820 12.367690 28.896559 7.394232 2.409177 36.862267 -11.777140 11.292183 -4.346710 62.397529 -4.846057 -6.839896 18.398398 -13.659264 
0.060804 -0.458189 0.826206 -157.357446 -8.775369 103.370424 8.832073 -2.150641 -58.635637 -12.042213 9.024998 61.602215 3.999274 9.682269 -27.769575 0.000000 -0.000000 0.000000 -29.617364 -20.793337 -41.729122 -2.638054 -8.445865 76.645773 12.004491 -8.332226 -30.980621 0.000000 -0.000000 0.000000 2.042942 14.427943 41.505317 -6.588474 3.960795 -4.871324 -3.779934 4.126304 2.012575 -4.900039 -14.279682 -14.801452 8.773593 -26.919281 -8.496121 -26.518140 -1.123907 -2.351921 -19.364009 4.748620 -5.149932 19.427421 -20.331941 -20.298608 30.120725 -9.856497 11.244205 28.823027 7.480264 2.802435 36.763299 -11.750897 11.029481 -5.184371 62.715210 -5.245543 -7.617449 18.431878 -13.591470 
0.058511 -0.460560 0.826448 -157.860961 -8.676818 103.620966 8.965641 -2.410356 -58.946981 -11.886033 9.316560 61.763365 3.915991 10.094748 -27.913439 0.000000 -0.000000 0.000000 -29.914011 -20.919788 -41.965110 -2.156589 -8.794044 76.182204 12.123286 -8.266476 -31.009648 0.000000 -0.000000 0.000000 2.279495 14.097597 41.412373 -6.315957 3.648992 -5.177978 -3.843688 3.913468 1.794866 -3.876202 -14.632654 -15.390935 9.301234 -28.034105 -8.369592 -26.401075 -1.076994 -1.694711 -19.489541 4.793565 -5.714538 18.853036 -19.732250 -20.513330 28.426257 -10.808911 11.813677 28.872958 7.054311 2.876311 36.405761 -11.720754 10.762793 -4.144091 63.108262 -4.474501 -7.846524 18.591041 -13.940839 
0.056449 -0.462147 0.826257 -159.082863 -8.315910 103.742872 9.289528 -1.868939 -58.864897 -11.751906 9.805846 62.078291 3.932322 10.386909 -28.284446 0.000000 -0.000000 0.000000 -29.617147 -20.657344 -42.631020 -1.423654 -8.491009 75.884377 11.954441 -8.485098 -30.993567 0.000000 -0.000000 0.000000 2.136190 13.906549 40.843022 -6.055965 3.765877 -5.018095 -3.628399 3.887226 1.886898 -3.507845 -14.906167 -15.924690 9.488083 -27.779064 -8.157996 -26.323012 -1.028565 -1.512363 -20.382138 5.023809 -5.620749 19.096654 -19.500559 -20.104644 27.997773 -10.555503 11.659602 28.611002 7.214371 2.884808 36.482528 -11.514287 10.281275 -2.391621 63.155506 -3.156999 -2.648220 17.665739 -15.777241 
